<svg width="61" height="60" viewBox="0 0 61 60" fill="none" xmlns="http://www.w3.org/2000/svg">
<path d="M60.7587 30C60.7587 46.5685 47.1574 60 30.3793 60C13.6013 60 0 46.5685 0 30C0 13.4315 13.6013 0 30.3793 0C47.1574 0 60.7587 13.4315 60.7587 30Z" fill="#DDFFE4"/>
<path d="M60.7587 30C60.7587 46.5685 47.1574 60 30.3793 60C13.6013 60 0 46.5685 0 30C0 13.4315 13.6013 0 30.3793 0C47.1574 0 60.7587 13.4315 60.7587 30Z" fill="#DDFFE4"/>
<path d="M26.2188 24.8125C26.2188 23.0003 27.6878 21.5312 29.5 21.5312C31.3122 21.5312 32.7813 23.0003 32.7813 24.8125C32.7813 26.6247 31.3122 28.0938 29.5 28.0938C27.6878 28.0938 26.2188 26.6247 26.2188 24.8125Z" fill="#41D55F"/>
<path fill-rule="evenodd" clip-rule="evenodd" d="M16.375 24.8125C16.375 17.5638 22.2513 11.6875 29.5 11.6875C36.7487 11.6875 42.625 17.5638 42.625 24.8125C42.625 27.3854 41.8847 29.7853 40.6055 31.811L45.7179 40.6659C45.9939 41.1439 45.9647 41.7393 45.6431 42.1881C45.3216 42.6368 44.7672 42.8559 44.2258 42.7482L39.3206 41.7729L37.7126 46.5086C37.5351 47.0313 37.0682 47.4019 36.5188 47.456C35.9694 47.5101 35.4392 47.2377 35.1632 46.7596L30.0629 37.9256C29.8763 37.9335 29.6886 37.9375 29.5 37.9375C29.3114 37.9375 29.1238 37.9335 28.9371 37.9256L23.8368 46.7596C23.5611 47.2372 23.0316 47.5096 22.4827 47.4561C21.9338 47.4027 21.4668 47.0333 21.2884 46.5115L19.6723 41.7854L14.7713 42.7488C14.2301 42.8552 13.6767 42.6355 13.356 42.1868C13.0353 41.7382 13.0064 41.1435 13.2822 40.6659L18.3945 31.811C17.1153 29.7853 16.375 27.3854 16.375 24.8125ZM20.2861 34.1597C21.8466 35.698 23.7904 36.8485 25.9613 37.4549L22.9484 42.6735L21.9362 39.7137C21.7087 39.0483 21.0245 38.6532 20.3344 38.7889L17.2651 39.3923L20.2861 34.1597ZM33.0387 37.4549L36.0472 42.6658L37.0538 39.701C37.2807 39.0329 37.9676 38.6363 38.6597 38.7739L41.7305 39.3845L38.7139 34.1597C37.1535 35.698 35.2096 36.8485 33.0387 37.4549ZM29.5 18.7188C26.1345 18.7188 23.4063 21.447 23.4063 24.8125C23.4063 28.178 26.1345 30.9062 29.5 30.9062C32.8655 30.9062 35.5938 28.178 35.5938 24.8125C35.5938 21.447 32.8655 18.7188 29.5 18.7188Z" fill="#41D55F"/>
</svg>
