<svg width="250" height="259" viewBox="0 0 250 259" fill="none" xmlns="http://www.w3.org/2000/svg">
<g clip-path="url(#clip0_668_7927)">
<rect x="0.375488" y="0.6875" width="249.375" height="257.812" fill="#008080"/>
<circle cx="130.219" cy="196.883" r="103.532" fill="#20B2AA"/>
<path d="M200.574 174.575C200.574 193.387 193.101 211.427 179.8 224.729C166.498 238.03 148.457 245.503 129.646 245.503C110.835 245.503 92.7941 238.03 79.4926 224.729C66.191 211.427 58.7183 193.387 58.7183 174.575H89.0514C89.0514 185.342 93.3284 195.667 100.941 203.28C108.554 210.893 118.88 215.17 129.646 215.17C140.413 215.17 150.738 210.893 158.351 203.28C165.964 195.667 170.241 185.342 170.241 174.575H200.574Z" fill="#008080"/>
</g>
<defs>
<clipPath id="clip0_668_7927">
<rect x="0.375488" y="0.6875" width="249.375" height="257.812" fill="white"/>
</clipPath>
</defs>
</svg>
