<svg width="55" height="55" viewBox="0 0 55 55" fill="none" xmlns="http://www.w3.org/2000/svg">
<path d="M55 27.5C55 42.6878 42.6878 55 27.5 55C12.3122 55 0 42.6878 0 27.5C0 12.3122 12.3122 0 27.5 0C42.6878 0 55 12.3122 55 27.5Z" fill="#FFDDDD"/>
<path d="M55 27.5C55 42.6878 42.6878 55 27.5 55C12.3122 55 0 42.6878 0 27.5C0 12.3122 12.3122 0 27.5 0C42.6878 0 55 12.3122 55 27.5Z" fill="#FFDDDD"/>
<path d="M43.15 19.633C41.7333 18.0664 39.3666 17.283 35.9333 17.283H35.5333V17.2164C35.5333 14.4164 35.5333 10.9497 29.2666 10.9497H26.7333C20.4666 10.9497 20.4666 14.433 20.4666 17.2164V17.2997H20.0666C16.6166 17.2997 14.2666 18.083 12.85 19.6497C11.2 21.483 11.25 23.9497 11.4166 25.633L11.4333 25.7497L11.5774 27.263C11.5917 27.4128 11.6725 27.5481 11.7982 27.6308C12.1645 27.8718 12.9505 28.3834 13.4 28.633C13.6333 28.783 13.8833 28.9164 14.1333 29.0497C16.9833 30.6164 20.1166 31.6664 23.3 32.183C23.45 33.7497 24.1333 35.583 27.7833 35.583C31.4333 35.583 32.15 33.7664 32.2666 32.1497C35.6666 31.5997 38.95 30.4164 41.9166 28.683C42.0166 28.633 42.0833 28.583 42.1666 28.533C42.8697 28.1357 43.6007 27.6402 44.257 27.1623C44.3697 27.0802 44.442 26.9543 44.4574 26.8158L44.5 26.433L44.5833 25.6497C44.6 25.5497 44.6 25.4664 44.6166 25.3497C44.75 23.6664 44.7166 21.3664 43.15 19.633ZM29.8166 31.0497C29.8166 32.8164 29.8166 33.083 27.7666 33.083C25.7166 33.083 25.7166 32.7664 25.7166 31.0664V28.9664H29.8166V31.0497ZM22.85 17.283V17.2164C22.85 14.383 22.85 13.333 26.7333 13.333H29.2666C33.15 13.333 33.15 14.3997 33.15 17.2164V17.2997H22.85V17.283Z" fill="#F45D5D"/>
<path d="M43.33 30.631C43.6827 30.4608 44.0877 30.7414 44.0523 31.1314L43.4 38.3165C43.05 41.6499 41.6834 45.0499 34.35 45.0499H21.65C14.3167 45.0499 12.95 41.6499 12.6 38.3332L11.9793 31.5054C11.9443 31.1199 12.3413 30.8402 12.6931 31.0015C14.4308 31.7985 18.6067 33.6581 20.9686 34.2386C21.1335 34.2791 21.2682 34.3967 21.3352 34.5527C22.311 36.8232 24.5353 38.0332 27.7834 38.0332C30.9993 38.0332 33.2534 36.7766 34.2314 34.503C34.2985 34.3468 34.4329 34.2293 34.5979 34.1887C37.1011 33.5727 41.523 31.5031 43.33 30.631Z" fill="#F45D5D"/>
</svg>
