<svg width="60" height="55" viewBox="0 0 60 55" fill="none" xmlns="http://www.w3.org/2000/svg">
<path d="M59.3137 27.5C59.3137 42.6878 46.0359 55 29.6569 55C13.2778 55 0 42.6878 0 27.5C0 12.3122 13.2778 0 29.6569 0C46.0359 0 59.3137 12.3122 59.3137 27.5Z" fill="#DBFFFD"/>
<path d="M59.3137 27.5C59.3137 42.6878 46.0359 55 29.6569 55C13.2778 55 0 42.6878 0 27.5C0 12.3122 13.2778 0 29.6569 0C46.0359 0 59.3137 12.3122 59.3137 27.5Z" fill="#DBFFFD"/>
<path d="M45.1499 18.633C43.7333 17.0664 41.3666 16.283 37.9333 16.283H37.5333V16.2164C37.5333 13.4164 37.5333 9.94971 31.2666 9.94971H28.7333C22.4666 9.94971 22.4666 13.433 22.4666 16.2164V16.2997H22.0666C18.6166 16.2997 16.2666 17.083 14.8499 18.6497C13.1999 20.483 13.2499 22.9497 13.4166 24.633L13.4333 24.7497L13.5774 26.263C13.5916 26.4128 13.6725 26.5481 13.7982 26.6308C14.1644 26.8718 14.9505 27.3834 15.3999 27.633C15.6333 27.783 15.8833 27.9164 16.1333 28.0497C18.9833 29.6164 22.1166 30.6664 25.2999 31.183C25.4499 32.7497 26.1333 34.583 29.7833 34.583C33.4333 34.583 34.1499 32.7664 34.2666 31.1497C37.6666 30.5997 40.9499 29.4164 43.9166 27.683C44.0166 27.633 44.0833 27.583 44.1666 27.533C44.8696 27.1357 45.6007 26.6402 46.257 26.1623C46.3697 26.0802 46.442 25.9543 46.4574 25.8158L46.4999 25.433L46.5833 24.6497C46.5999 24.5497 46.5999 24.4664 46.6166 24.3497C46.7499 22.6664 46.7166 20.3664 45.1499 18.633ZM31.8166 30.0497C31.8166 31.8164 31.8166 32.083 29.7666 32.083C27.7166 32.083 27.7166 31.7664 27.7166 30.0664V27.9664H31.8166V30.0497ZM24.8499 16.283V16.2164C24.8499 13.383 24.8499 12.333 28.7333 12.333H31.2666C35.1499 12.333 35.1499 13.3997 35.1499 16.2164V16.2997H24.8499V16.283Z" fill="#05CFC3"/>
<path d="M45.33 29.631C45.6826 29.4608 46.0877 29.7414 46.0523 30.1314L45.4 37.3165C45.05 40.6499 43.6833 44.0499 36.35 44.0499H23.65C16.3167 44.0499 14.95 40.6499 14.6 37.3332L13.9793 30.5054C13.9443 30.1199 14.3413 29.8402 14.6931 30.0015C16.4308 30.7985 20.6067 32.6581 22.9686 33.2386C23.1335 33.2791 23.2681 33.3967 23.3352 33.5527C24.311 35.8232 26.5353 37.0332 29.7833 37.0332C32.9993 37.0332 35.2534 35.7766 36.2313 33.503C36.2985 33.3468 36.4328 33.2293 36.5979 33.1887C39.1011 32.5727 43.523 30.5031 45.33 29.631Z" fill="#05CFC3"/>
</svg>
